<svg width="48" height="32" viewBox="0 0 48 32" fill="none" xmlns="http://www.w3.org/2000/svg">
<rect x="0.5" y="0.5" width="47" height="31" rx="3.5" fill="white"/>
<rect x="0.5" y="0.5" width="47" height="31" rx="3.5" stroke="#E2E2E7"/>
<path d="M25.7579 15.6883C28.3516 14.5007 28.7352 10.625 25.0458 10.625H20.7733L19.1944 13.7505H19.9374L18.0488 21.2206H23.0024C26.6163 21.2518 28.2416 16.9557 25.7579 15.6883ZM23.0024 18.5014H21.764L22.2284 16.8136H23.4048C24.798 17.0949 23.9313 18.5639 23.0024 18.5014ZM23.7455 14.9069H22.6929L23.0024 13.4379H24.1789C25.3156 13.7193 24.3338 14.9695 23.7455 14.9069Z" fill="#005FAF"/>
<path d="M35.9002 14.6167L37.5222 11.7261L35.3274 10.5703L35.0411 10.927C33.8571 10.2943 27.6573 11.1679 27.269 17.3422C27.5011 22.5217 33.25 21.59 33.8139 21.2613L35.3951 17.9616C33.8465 18.9913 30.6757 19.4857 30.5415 16.3924C30.8196 13.8416 33.8028 12.889 35.9002 14.6167ZM43.9941 10.625H39.0077L37.4227 13.657H38.237L34.4792 21.2206H38.1165L38.8633 19.3962H41.096L41.1517 21.2206H44.5L43.9941 10.625ZM39.8749 16.94L41.0959 13.9974L41.1516 16.94H39.8749Z" fill="#005FAF"/>
<path d="M12.8551 20.7144L13.0488 20.6577L12.8363 20.3613L12.8551 20.7144ZM9.67502 20.664L9.63755 20.9289C9.73396 20.9194 9.85265 21.0033 9.89997 20.8154C9.89642 20.6689 9.78598 20.6608 9.67502 20.664ZM11.2183 20.6577C11.2022 20.5856 11.1425 20.5324 10.9933 20.5821L11.0433 20.8532C11.1659 20.8257 11.2289 20.7525 11.2183 20.6577ZM7.73202 20.4358L7.67236 20.6767C7.76824 20.6807 7.88054 20.7592 7.94419 20.6165C7.94845 20.527 7.95209 20.438 7.73202 20.4358ZM11.0871 21.0551L11.1308 21.3326C11.2332 21.3352 11.3266 21.2731 11.2995 21.1435C11.2734 21.0187 11.1696 21.0384 11.0871 21.0551Z" fill="#005FAF"/>
<path d="M15.1502 10.7676C11.8418 9.06619 7.89076 9.11351 4.73857 10.6934C3.11312 13.5822 3.06137 17.624 4.73857 21.2039C8.21132 22.978 12.0522 22.8612 15.1746 21.2781C16.642 18.2388 16.8844 14.5815 15.1502 10.7676ZM9.56273 19.3935L9.36663 19.3958C9.31807 18.8487 9.18855 18.389 8.91068 18.0371C7.63651 16.424 5.03188 17.6385 5.70115 14.897C6.04914 13.4955 10.0185 12.669 9.56273 19.3935ZM5.70585 16.6859C5.98407 17.2576 7.72715 17.3512 8.33223 17.7889C9.29206 18.483 9.15428 19.396 9.15428 19.396H8.92791C8.48226 18.017 7.23152 19.1089 6.22971 18.7375C5.60075 18.5117 5.14409 17.5327 5.70585 16.6859ZM8.88165 21.1814L8.9754 20.4308L9.14407 20.4435L9.06906 21.2697C8.99342 21.6336 8.45589 21.585 8.38807 21.2381L8.47551 20.3804L8.67543 20.412L8.58799 21.1309C8.59909 21.3689 8.83549 21.3546 8.88165 21.1814ZM7.98406 21.3864L7.79178 21.3395C7.81432 21.1791 8.00279 20.8527 7.6303 20.8527L7.52661 21.2793L7.31444 21.2391L7.53984 20.215C8.09077 20.2756 8.13897 20.4304 8.14989 20.5965C8.12814 20.7254 8.09414 20.8154 7.98415 20.8374C8.11287 20.9554 7.98566 21.2025 7.98406 21.3864ZM6.7628 20.2393C6.7098 20.3103 6.60371 20.5583 6.58836 20.7559C6.57202 20.9653 6.77132 20.9212 6.82094 20.8968C6.86098 20.8771 6.89072 20.7089 6.89072 20.7089L6.75117 20.6619L6.79769 20.5212L7.11177 20.6268L6.96059 21.1552L6.83266 21.1199L6.84429 21.0377C6.68769 21.1098 6.40104 21.0557 6.3674 20.8734C6.33375 20.7268 6.43566 20.2826 6.59999 20.075C6.75969 19.8732 7.14879 20.0704 7.15828 20.1924C7.16769 20.3139 7.1202 20.4507 7.1202 20.4507L6.97372 20.4228C6.97372 20.4228 6.98269 20.3789 6.99547 20.3097C7.00897 20.2364 6.81961 20.163 6.7628 20.2393ZM9.61892 21.0993L9.58146 21.5535L9.42531 21.5472L9.4815 20.4686C9.87148 20.4768 10.095 20.5313 10.0876 20.8093C10.0643 21.1891 9.75963 21.1037 9.61892 21.0993ZM10.0077 19.396H9.7464C9.72323 18.4619 9.90113 16.7535 9.41501 15.4962C9.04669 14.543 8.11456 14.1143 7.90798 13.3444C7.58094 12.1257 8.13755 10.8071 10.0077 10.7055C11.6289 10.8736 12.1271 12.1372 11.8505 13.3136C11.375 14.4899 10.8995 14.3209 10.3075 15.4926C9.8239 16.7486 10.008 18.3942 10.0077 19.396ZM12.9052 21.1246L12.724 21.1877L12.6677 20.1028L12.8801 20.0461L13.405 20.9417L13.2612 21.0363L13.0863 20.7841L12.8863 20.8597L12.9052 21.1246ZM10.7914 19.396H10.5824C10.7546 16.9971 13.7405 17.5183 14.0134 16.6859C14.4853 17.5111 14.3157 18.2069 13.8229 18.5636C12.5984 19.4504 11.4241 17.9074 10.7914 19.396ZM11.8993 20.6075L11.9931 21.1058C12.0514 21.2206 12.091 21.1993 12.1805 21.1878C12.2843 21.1119 12.2626 21.0381 12.243 20.9417L12.4242 20.9166C12.4714 21.2776 12.3014 21.3144 12.1743 21.3391C11.9017 21.3588 11.8482 21.3053 11.7744 20.9481C11.7315 20.6424 11.6573 20.3196 11.9119 20.2606C12.3298 20.1962 12.3051 20.3861 12.343 20.5192L12.1618 20.5508C12.1328 20.4365 12.0912 20.3911 11.9993 20.3995C11.9156 20.4383 11.8812 20.5012 11.8993 20.6075ZM11.5182 21.1246C11.5269 21.2817 11.4741 21.386 11.3745 21.421L10.9496 21.5093L10.781 20.4686C10.8681 20.4543 11.2956 20.2962 11.3995 20.5823C11.4507 20.7569 11.3976 20.8196 11.337 20.8976C11.4519 20.9348 11.4907 21.0252 11.5182 21.1246ZM10.4272 15.9021C11.3737 13.2116 13.5395 13.6871 14.0199 14.8971C14.678 17.3253 12.5589 16.6594 11.2016 17.6551C10.6886 18.1055 10.4186 18.6223 10.4146 19.4056H10.182C10.1681 17.8278 10.1428 16.7104 10.4272 15.9021Z" fill="#005FAF"/>
</svg>
