<svg width="32" height="32" viewBox="0 0 32 32" fill="none" xmlns="http://www.w3.org/2000/svg">
<path d="M22.1582 0C22.2327 0 22.3071 0 22.3858 0C22.5685 2.25671 21.7071 3.94291 20.6603 5.16401C19.6331 6.37667 18.2265 7.5528 15.9515 7.37435C15.7998 5.14996 16.6626 3.58881 17.708 2.37053C18.6776 1.23515 20.4551 0.224828 22.1582 0Z" fill="black"/>
<path d="M29.0449 23.4887C29.0449 23.5112 29.0449 23.5308 29.0449 23.5519C28.4056 25.4882 27.4936 27.1477 26.3807 28.6878C25.3648 30.086 24.1198 31.9675 21.8968 31.9675C19.9759 31.9675 18.7 30.7323 16.7314 30.6986C14.6489 30.6649 13.5037 31.7314 11.5997 31.9998C11.3819 31.9998 11.1641 31.9998 10.9505 31.9998C9.55236 31.7975 8.42401 30.6902 7.60198 29.6925C5.17806 26.7445 3.30496 22.9364 2.95648 18.0633C2.95648 17.5855 2.95648 17.1092 2.95648 16.6314C3.10403 13.1438 4.79866 10.3082 7.05116 8.93389C8.23993 8.2032 9.87415 7.58071 11.6938 7.85894C12.4737 7.97978 13.2705 8.24676 13.9688 8.51094C14.6307 8.76527 15.4583 9.21633 16.2424 9.19245C16.7735 9.17699 17.3019 8.90017 17.8373 8.70485C19.4054 8.13857 20.9427 7.48938 22.969 7.7943C25.4041 8.16245 27.1325 9.24444 28.2004 10.9138C26.1404 12.2248 24.5118 14.2005 24.7901 17.5743C25.0374 20.639 26.8191 22.432 29.0449 23.4887Z" fill="black"/>
</svg>
