<svg width="32" height="32" viewBox="0 0 32 32" fill="none" xmlns="http://www.w3.org/2000/svg">
<g clip-path="url(#clip0_61_2375)">
<path d="M32 16.0972C32 7.26117 24.836 0.097168 16 0.097168C7.164 0.097168 0 7.26117 0 16.0972C0 24.0838 5.85067 30.7025 13.5 31.9025V20.7225H9.43733V16.0958H13.5V12.5732C13.5 8.56384 15.8893 6.34783 19.544 6.34783C21.2933 6.34783 23.1253 6.66117 23.1253 6.66117V10.5985H21.1067C19.1187 10.5985 18.4987 11.8318 18.4987 13.0972V16.0972H22.936L22.2267 20.7238H18.4987V31.9038C26.1493 30.7025 32 24.0825 32 16.0972Z" fill="#1877F2"/>
</g>
<defs>
<clipPath id="clip0_61_2375">
<rect width="32" height="32" fill="white"/>
</clipPath>
</defs>
</svg>
